CATALOG 0000000000000
FILE "NFL '97 v1.010 (1996)(Sega Sports)(NTSC)(US)(Track 01 of 98)[!].iso" BINARY
  TRACK 01 MODE1/2048
    INDEX 01 00:00:00
FILE "NFL '97 v1.010 (1996)(Sega Sports)(NTSC)(US)(Track 02 of 98)[!].wav" WAVE
  TRACK 02 AUDIO
    PREGAP 00:02:00
    INDEX 01 00:00:00
FILE "NFL '97 v1.010 (1996)(Sega Sports)(NTSC)(US)(Track 03 of 98)[!].wav" WAVE
  TRACK 03 AUDIO
    INDEX 00 00:00:00
    INDEX 01 00:02:00
FILE "NFL '97 v1.010 (1996)(Sega Sports)(NTSC)(US)(Track 04 of 98)[!].wav" WAVE
  TRACK 04 AUDIO
    INDEX 00 00:00:00
    INDEX 01 00:02:00
FILE "NFL '97 v1.010 (1996)(Sega Sports)(NTSC)(US)(Track 05 of 98)[!].wav" WAVE
  TRACK 05 AUDIO
    INDEX 00 00:00:00
    INDEX 01 00:02:00
FILE "NFL '97 v1.010 (1996)(Sega Sports)(NTSC)(US)(Track 06 of 98)[!].wav" WAVE
  TRACK 06 AUDIO
    INDEX 00 00:00:00
    INDEX 01 00:02:00
FILE "NFL '97 v1.010 (1996)(Sega Sports)(NTSC)(US)(Track 07 of 98)[!].wav" WAVE
  TRACK 07 AUDIO
    INDEX 00 00:00:00
    INDEX 01 00:02:00
FILE "NFL '97 v1.010 (1996)(Sega Sports)(NTSC)(US)(Track 08 of 98)[!].wav" WAVE
  TRACK 08 AUDIO
    INDEX 00 00:00:00
    INDEX 01 00:02:00
FILE "NFL '97 v1.010 (1996)(Sega Sports)(NTSC)(US)(Track 09 of 98)[!].wav" WAVE
  TRACK 09 AUDIO
    INDEX 00 00:00:00
    INDEX 01 00:02:00
FILE "NFL '97 v1.010 (1996)(Sega Sports)(NTSC)(US)(Track 10 of 98)[!].wav" WAVE
  TRACK 10 AUDIO
    INDEX 00 00:00:00
    INDEX 01 00:02:00
FILE "NFL '97 v1.010 (1996)(Sega Sports)(NTSC)(US)(Track 11 of 98)[!].wav" WAVE
  TRACK 11 AUDIO
    INDEX 00 00:00:00
    INDEX 01 00:02:00
FILE "NFL '97 v1.010 (1996)(Sega Sports)(NTSC)(US)(Track 12 of 98)[!].wav" WAVE
  TRACK 12 AUDIO
    INDEX 00 00:00:00
    INDEX 01 00:02:00
FILE "NFL '97 v1.010 (1996)(Sega Sports)(NTSC)(US)(Track 13 of 98)[!].wav" WAVE
  TRACK 13 AUDIO
    INDEX 00 00:00:00
    INDEX 01 00:02:00
FILE "NFL '97 v1.010 (1996)(Sega Sports)(NTSC)(US)(Track 14 of 98)[!].wav" WAVE
  TRACK 14 AUDIO
    INDEX 00 00:00:00
    INDEX 01 00:02:00
FILE "NFL '97 v1.010 (1996)(Sega Sports)(NTSC)(US)(Track 15 of 98)[!].wav" WAVE
  TRACK 15 AUDIO
    INDEX 00 00:00:00
    INDEX 01 00:02:00
FILE "NFL '97 v1.010 (1996)(Sega Sports)(NTSC)(US)(Track 16 of 98)[!].wav" WAVE
  TRACK 16 AUDIO
    INDEX 00 00:00:00
    INDEX 01 00:02:00
FILE "NFL '97 v1.010 (1996)(Sega Sports)(NTSC)(US)(Track 17 of 98)[!].wav" WAVE
  TRACK 17 AUDIO
    INDEX 00 00:00:00
    INDEX 01 00:02:00
FILE "NFL '97 v1.010 (1996)(Sega Sports)(NTSC)(US)(Track 18 of 98)[!].wav" WAVE
  TRACK 18 AUDIO
    INDEX 00 00:00:00
    INDEX 01 00:02:00
FILE "NFL '97 v1.010 (1996)(Sega Sports)(NTSC)(US)(Track 19 of 98)[!].wav" WAVE
  TRACK 19 AUDIO
    INDEX 00 00:00:00
    INDEX 01 00:02:00
FILE "NFL '97 v1.010 (1996)(Sega Sports)(NTSC)(US)(Track 20 of 98)[!].wav" WAVE
  TRACK 20 AUDIO
    INDEX 00 00:00:00
    INDEX 01 00:02:00
FILE "NFL '97 v1.010 (1996)(Sega Sports)(NTSC)(US)(Track 21 of 98)[!].wav" WAVE
  TRACK 21 AUDIO
    INDEX 00 00:00:00
    INDEX 01 00:02:00
FILE "NFL '97 v1.010 (1996)(Sega Sports)(NTSC)(US)(Track 22 of 98)[!].wav" WAVE
  TRACK 22 AUDIO
    INDEX 00 00:00:00
    INDEX 01 00:02:00
FILE "NFL '97 v1.010 (1996)(Sega Sports)(NTSC)(US)(Track 23 of 98)[!].wav" WAVE
  TRACK 23 AUDIO
    INDEX 00 00:00:00
    INDEX 01 00:02:00
FILE "NFL '97 v1.010 (1996)(Sega Sports)(NTSC)(US)(Track 24 of 98)[!].wav" WAVE
  TRACK 24 AUDIO
    INDEX 00 00:00:00
    INDEX 01 00:02:00
FILE "NFL '97 v1.010 (1996)(Sega Sports)(NTSC)(US)(Track 25 of 98)[!].wav" WAVE
  TRACK 25 AUDIO
    INDEX 00 00:00:00
    INDEX 01 00:02:00
FILE "NFL '97 v1.010 (1996)(Sega Sports)(NTSC)(US)(Track 26 of 98)[!].wav" WAVE
  TRACK 26 AUDIO
    INDEX 00 00:00:00
    INDEX 01 00:02:00
FILE "NFL '97 v1.010 (1996)(Sega Sports)(NTSC)(US)(Track 27 of 98)[!].wav" WAVE
  TRACK 27 AUDIO
    INDEX 00 00:00:00
    INDEX 01 00:02:00
FILE "NFL '97 v1.010 (1996)(Sega Sports)(NTSC)(US)(Track 28 of 98)[!].wav" WAVE
  TRACK 28 AUDIO
    INDEX 00 00:00:00
    INDEX 01 00:02:00
FILE "NFL '97 v1.010 (1996)(Sega Sports)(NTSC)(US)(Track 29 of 98)[!].wav" WAVE
  TRACK 29 AUDIO
    INDEX 00 00:00:00
    INDEX 01 00:02:00
FILE "NFL '97 v1.010 (1996)(Sega Sports)(NTSC)(US)(Track 30 of 98)[!].wav" WAVE
  TRACK 30 AUDIO
    INDEX 00 00:00:00
    INDEX 01 00:02:00
FILE "NFL '97 v1.010 (1996)(Sega Sports)(NTSC)(US)(Track 31 of 98)[!].wav" WAVE
  TRACK 31 AUDIO
    INDEX 00 00:00:00
    INDEX 01 00:02:00
FILE "NFL '97 v1.010 (1996)(Sega Sports)(NTSC)(US)(Track 32 of 98)[!].wav" WAVE
  TRACK 32 AUDIO
    INDEX 00 00:00:00
    INDEX 01 00:02:00
FILE "NFL '97 v1.010 (1996)(Sega Sports)(NTSC)(US)(Track 33 of 98)[!].wav" WAVE
  TRACK 33 AUDIO
    INDEX 00 00:00:00
    INDEX 01 00:02:00
FILE "NFL '97 v1.010 (1996)(Sega Sports)(NTSC)(US)(Track 34 of 98)[!].wav" WAVE
  TRACK 34 AUDIO
    INDEX 00 00:00:00
    INDEX 01 00:02:00
FILE "NFL '97 v1.010 (1996)(Sega Sports)(NTSC)(US)(Track 35 of 98)[!].wav" WAVE
  TRACK 35 AUDIO
    INDEX 00 00:00:00
    INDEX 01 00:02:00
FILE "NFL '97 v1.010 (1996)(Sega Sports)(NTSC)(US)(Track 36 of 98)[!].wav" WAVE
  TRACK 36 AUDIO
    INDEX 00 00:00:00
    INDEX 01 00:02:00
FILE "NFL '97 v1.010 (1996)(Sega Sports)(NTSC)(US)(Track 37 of 98)[!].wav" WAVE
  TRACK 37 AUDIO
    INDEX 00 00:00:00
    INDEX 01 00:02:00
FILE "NFL '97 v1.010 (1996)(Sega Sports)(NTSC)(US)(Track 38 of 98)[!].wav" WAVE
  TRACK 38 AUDIO
    INDEX 00 00:00:00
    INDEX 01 00:02:00
FILE "NFL '97 v1.010 (1996)(Sega Sports)(NTSC)(US)(Track 39 of 98)[!].wav" WAVE
  TRACK 39 AUDIO
    INDEX 00 00:00:00
    INDEX 01 00:02:00
FILE "NFL '97 v1.010 (1996)(Sega Sports)(NTSC)(US)(Track 40 of 98)[!].wav" WAVE
  TRACK 40 AUDIO
    INDEX 00 00:00:00
    INDEX 01 00:02:00
FILE "NFL '97 v1.010 (1996)(Sega Sports)(NTSC)(US)(Track 41 of 98)[!].wav" WAVE
  TRACK 41 AUDIO
    INDEX 00 00:00:00
    INDEX 01 00:02:00
FILE "NFL '97 v1.010 (1996)(Sega Sports)(NTSC)(US)(Track 42 of 98)[!].wav" WAVE
  TRACK 42 AUDIO
    INDEX 00 00:00:00
    INDEX 01 00:02:00
FILE "NFL '97 v1.010 (1996)(Sega Sports)(NTSC)(US)(Track 43 of 98)[!].wav" WAVE
  TRACK 43 AUDIO
    INDEX 00 00:00:00
    INDEX 01 00:02:00
FILE "NFL '97 v1.010 (1996)(Sega Sports)(NTSC)(US)(Track 44 of 98)[!].wav" WAVE
  TRACK 44 AUDIO
    INDEX 00 00:00:00
    INDEX 01 00:02:00
FILE "NFL '97 v1.010 (1996)(Sega Sports)(NTSC)(US)(Track 45 of 98)[!].wav" WAVE
  TRACK 45 AUDIO
    INDEX 00 00:00:00
    INDEX 01 00:02:00
FILE "NFL '97 v1.010 (1996)(Sega Sports)(NTSC)(US)(Track 46 of 98)[!].wav" WAVE
  TRACK 46 AUDIO
    INDEX 00 00:00:00
    INDEX 01 00:02:00
FILE "NFL '97 v1.010 (1996)(Sega Sports)(NTSC)(US)(Track 47 of 98)[!].wav" WAVE
  TRACK 47 AUDIO
    INDEX 00 00:00:00
    INDEX 01 00:02:00
FILE "NFL '97 v1.010 (1996)(Sega Sports)(NTSC)(US)(Track 48 of 98)[!].wav" WAVE
  TRACK 48 AUDIO
    INDEX 00 00:00:00
    INDEX 01 00:02:00
FILE "NFL '97 v1.010 (1996)(Sega Sports)(NTSC)(US)(Track 49 of 98)[!].wav" WAVE
  TRACK 49 AUDIO
    INDEX 00 00:00:00
    INDEX 01 00:02:00
FILE "NFL '97 v1.010 (1996)(Sega Sports)(NTSC)(US)(Track 50 of 98)[!].wav" WAVE
  TRACK 50 AUDIO
    INDEX 00 00:00:00
    INDEX 01 00:02:00
FILE "NFL '97 v1.010 (1996)(Sega Sports)(NTSC)(US)(Track 51 of 98)[!].wav" WAVE
  TRACK 51 AUDIO
    INDEX 00 00:00:00
    INDEX 01 00:02:00
FILE "NFL '97 v1.010 (1996)(Sega Sports)(NTSC)(US)(Track 52 of 98)[!].wav" WAVE
  TRACK 52 AUDIO
    INDEX 00 00:00:00
    INDEX 01 00:02:00
FILE "NFL '97 v1.010 (1996)(Sega Sports)(NTSC)(US)(Track 53 of 98)[!].wav" WAVE
  TRACK 53 AUDIO
    INDEX 00 00:00:00
    INDEX 01 00:02:00
FILE "NFL '97 v1.010 (1996)(Sega Sports)(NTSC)(US)(Track 54 of 98)[!].wav" WAVE
  TRACK 54 AUDIO
    INDEX 00 00:00:00
    INDEX 01 00:02:00
FILE "NFL '97 v1.010 (1996)(Sega Sports)(NTSC)(US)(Track 55 of 98)[!].wav" WAVE
  TRACK 55 AUDIO
    INDEX 00 00:00:00
    INDEX 01 00:02:00
FILE "NFL '97 v1.010 (1996)(Sega Sports)(NTSC)(US)(Track 56 of 98)[!].wav" WAVE
  TRACK 56 AUDIO
    INDEX 00 00:00:00
    INDEX 01 00:02:00
FILE "NFL '97 v1.010 (1996)(Sega Sports)(NTSC)(US)(Track 57 of 98)[!].wav" WAVE
  TRACK 57 AUDIO
    INDEX 00 00:00:00
    INDEX 01 00:02:00
FILE "NFL '97 v1.010 (1996)(Sega Sports)(NTSC)(US)(Track 58 of 98)[!].wav" WAVE
  TRACK 58 AUDIO
    INDEX 00 00:00:00
    INDEX 01 00:02:00
FILE "NFL '97 v1.010 (1996)(Sega Sports)(NTSC)(US)(Track 59 of 98)[!].wav" WAVE
  TRACK 59 AUDIO
    INDEX 00 00:00:00
    INDEX 01 00:02:00
FILE "NFL '97 v1.010 (1996)(Sega Sports)(NTSC)(US)(Track 60 of 98)[!].wav" WAVE
  TRACK 60 AUDIO
    INDEX 00 00:00:00
    INDEX 01 00:02:00
FILE "NFL '97 v1.010 (1996)(Sega Sports)(NTSC)(US)(Track 61 of 98)[!].wav" WAVE
  TRACK 61 AUDIO
    INDEX 00 00:00:00
    INDEX 01 00:02:00
FILE "NFL '97 v1.010 (1996)(Sega Sports)(NTSC)(US)(Track 62 of 98)[!].wav" WAVE
  TRACK 62 AUDIO
    INDEX 00 00:00:00
    INDEX 01 00:02:00
FILE "NFL '97 v1.010 (1996)(Sega Sports)(NTSC)(US)(Track 63 of 98)[!].wav" WAVE
  TRACK 63 AUDIO
    INDEX 00 00:00:00
    INDEX 01 00:02:00
FILE "NFL '97 v1.010 (1996)(Sega Sports)(NTSC)(US)(Track 64 of 98)[!].wav" WAVE
  TRACK 64 AUDIO
    INDEX 00 00:00:00
    INDEX 01 00:02:00
FILE "NFL '97 v1.010 (1996)(Sega Sports)(NTSC)(US)(Track 65 of 98)[!].wav" WAVE
  TRACK 65 AUDIO
    INDEX 00 00:00:00
    INDEX 01 00:02:00
FILE "NFL '97 v1.010 (1996)(Sega Sports)(NTSC)(US)(Track 66 of 98)[!].wav" WAVE
  TRACK 66 AUDIO
    INDEX 00 00:00:00
    INDEX 01 00:02:00
FILE "NFL '97 v1.010 (1996)(Sega Sports)(NTSC)(US)(Track 67 of 98)[!].wav" WAVE
  TRACK 67 AUDIO
    INDEX 00 00:00:00
    INDEX 01 00:02:00
FILE "NFL '97 v1.010 (1996)(Sega Sports)(NTSC)(US)(Track 68 of 98)[!].wav" WAVE
  TRACK 68 AUDIO
    INDEX 00 00:00:00
    INDEX 01 00:02:00
FILE "NFL '97 v1.010 (1996)(Sega Sports)(NTSC)(US)(Track 69 of 98)[!].wav" WAVE
  TRACK 69 AUDIO
    INDEX 00 00:00:00
    INDEX 01 00:02:00
FILE "NFL '97 v1.010 (1996)(Sega Sports)(NTSC)(US)(Track 70 of 98)[!].wav" WAVE
  TRACK 70 AUDIO
    INDEX 00 00:00:00
    INDEX 01 00:02:00
FILE "NFL '97 v1.010 (1996)(Sega Sports)(NTSC)(US)(Track 71 of 98)[!].wav" WAVE
  TRACK 71 AUDIO
    INDEX 00 00:00:00
    INDEX 01 00:02:00
FILE "NFL '97 v1.010 (1996)(Sega Sports)(NTSC)(US)(Track 72 of 98)[!].wav" WAVE
  TRACK 72 AUDIO
    INDEX 00 00:00:00
    INDEX 01 00:02:00
FILE "NFL '97 v1.010 (1996)(Sega Sports)(NTSC)(US)(Track 73 of 98)[!].wav" WAVE
  TRACK 73 AUDIO
    INDEX 00 00:00:00
    INDEX 01 00:02:00
FILE "NFL '97 v1.010 (1996)(Sega Sports)(NTSC)(US)(Track 74 of 98)[!].wav" WAVE
  TRACK 74 AUDIO
    INDEX 00 00:00:00
    INDEX 01 00:02:00
FILE "NFL '97 v1.010 (1996)(Sega Sports)(NTSC)(US)(Track 75 of 98)[!].wav" WAVE
  TRACK 75 AUDIO
    INDEX 00 00:00:00
    INDEX 01 00:02:00
FILE "NFL '97 v1.010 (1996)(Sega Sports)(NTSC)(US)(Track 76 of 98)[!].wav" WAVE
  TRACK 76 AUDIO
    INDEX 00 00:00:00
    INDEX 01 00:02:00
FILE "NFL '97 v1.010 (1996)(Sega Sports)(NTSC)(US)(Track 77 of 98)[!].wav" WAVE
  TRACK 77 AUDIO
    INDEX 00 00:00:00
    INDEX 01 00:02:00
FILE "NFL '97 v1.010 (1996)(Sega Sports)(NTSC)(US)(Track 78 of 98)[!].wav" WAVE
  TRACK 78 AUDIO
    INDEX 00 00:00:00
    INDEX 01 00:02:00
FILE "NFL '97 v1.010 (1996)(Sega Sports)(NTSC)(US)(Track 79 of 98)[!].wav" WAVE
  TRACK 79 AUDIO
    INDEX 00 00:00:00
    INDEX 01 00:02:00
FILE "NFL '97 v1.010 (1996)(Sega Sports)(NTSC)(US)(Track 80 of 98)[!].wav" WAVE
  TRACK 80 AUDIO
    INDEX 00 00:00:00
    INDEX 01 00:02:00
FILE "NFL '97 v1.010 (1996)(Sega Sports)(NTSC)(US)(Track 81 of 98)[!].wav" WAVE
  TRACK 81 AUDIO
    INDEX 00 00:00:00
    INDEX 01 00:02:00
FILE "NFL '97 v1.010 (1996)(Sega Sports)(NTSC)(US)(Track 82 of 98)[!].wav" WAVE
  TRACK 82 AUDIO
    INDEX 00 00:00:00
    INDEX 01 00:02:00
FILE "NFL '97 v1.010 (1996)(Sega Sports)(NTSC)(US)(Track 83 of 98)[!].wav" WAVE
  TRACK 83 AUDIO
    INDEX 00 00:00:00
    INDEX 01 00:02:00
FILE "NFL '97 v1.010 (1996)(Sega Sports)(NTSC)(US)(Track 84 of 98)[!].wav" WAVE
  TRACK 84 AUDIO
    INDEX 00 00:00:00
    INDEX 01 00:02:00
FILE "NFL '97 v1.010 (1996)(Sega Sports)(NTSC)(US)(Track 85 of 98)[!].wav" WAVE
  TRACK 85 AUDIO
    INDEX 00 00:00:00
    INDEX 01 00:02:00
FILE "NFL '97 v1.010 (1996)(Sega Sports)(NTSC)(US)(Track 86 of 98)[!].wav" WAVE
  TRACK 86 AUDIO
    INDEX 00 00:00:00
    INDEX 01 00:02:00
FILE "NFL '97 v1.010 (1996)(Sega Sports)(NTSC)(US)(Track 87 of 98)[!].wav" WAVE
  TRACK 87 AUDIO
    INDEX 00 00:00:00
    INDEX 01 00:02:00
FILE "NFL '97 v1.010 (1996)(Sega Sports)(NTSC)(US)(Track 88 of 98)[!].wav" WAVE
  TRACK 88 AUDIO
    INDEX 00 00:00:00
    INDEX 01 00:02:00
FILE "NFL '97 v1.010 (1996)(Sega Sports)(NTSC)(US)(Track 89 of 98)[!].wav" WAVE
  TRACK 89 AUDIO
    INDEX 00 00:00:00
    INDEX 01 00:02:00
FILE "NFL '97 v1.010 (1996)(Sega Sports)(NTSC)(US)(Track 90 of 98)[!].wav" WAVE
  TRACK 90 AUDIO
    INDEX 00 00:00:00
    INDEX 01 00:02:00
FILE "NFL '97 v1.010 (1996)(Sega Sports)(NTSC)(US)(Track 91 of 98)[!].wav" WAVE
  TRACK 91 AUDIO
    INDEX 00 00:00:00
    INDEX 01 00:02:00
FILE "NFL '97 v1.010 (1996)(Sega Sports)(NTSC)(US)(Track 92 of 98)[!].wav" WAVE
  TRACK 92 AUDIO
    INDEX 00 00:00:00
    INDEX 01 00:02:00
FILE "NFL '97 v1.010 (1996)(Sega Sports)(NTSC)(US)(Track 93 of 98)[!].wav" WAVE
  TRACK 93 AUDIO
    INDEX 00 00:00:00
    INDEX 01 00:02:00
FILE "NFL '97 v1.010 (1996)(Sega Sports)(NTSC)(US)(Track 94 of 98)[!].wav" WAVE
  TRACK 94 AUDIO
    INDEX 00 00:00:00
    INDEX 01 00:02:00
FILE "NFL '97 v1.010 (1996)(Sega Sports)(NTSC)(US)(Track 95 of 98)[!].wav" WAVE
  TRACK 95 AUDIO
    INDEX 00 00:00:00
    INDEX 01 00:02:00
FILE "NFL '97 v1.010 (1996)(Sega Sports)(NTSC)(US)(Track 96 of 98)[!].wav" WAVE
  TRACK 96 AUDIO
    INDEX 00 00:00:00
    INDEX 01 00:02:00
FILE "NFL '97 v1.010 (1996)(Sega Sports)(NTSC)(US)(Track 97 of 98)[!].wav" WAVE
  TRACK 97 AUDIO
    INDEX 00 00:00:00
    INDEX 01 00:02:00
FILE "NFL '97 v1.010 (1996)(Sega Sports)(NTSC)(US)(Track 98 of 98)[!].wav" WAVE
  TRACK 98 AUDIO
    INDEX 00 00:00:00
    INDEX 01 00:02:00
